<?xml version="1.0" standalone="no"?>
<!DOCTYPE svg PUBLIC "-//W3C//DTD SVG 20010904//EN"
 "http://www.w3.org/TR/2001/REC-SVG-20010904/DTD/svg10.dtd">
<svg version="1.0" xmlns="http://www.w3.org/2000/svg"
 width="1280.000000pt" height="1280.000000pt" viewBox="0 0 1280.000000 1280.000000"
 preserveAspectRatio="xMidYMid meet">
<metadata>
Created by potrace 1.14, written by Peter Selinger 2001-2017
</metadata>
<g transform="translate(0.000000,1280.000000) scale(0.100000,-0.100000)"
fill="#000000" stroke="none">
<path d="M6207 11764 c-1 -2 -54 -6 -117 -9 -63 -3 -128 -8 -145 -10 -16 -2
-57 -6 -90 -9 -33 -3 -96 -11 -140 -17 -44 -6 -90 -13 -102 -14 -32 -4 -104
-17 -128 -22 -11 -2 -33 -6 -50 -9 -62 -11 -70 -12 -85 -18 -8 -3 -28 -7 -45
-10 -16 -2 -52 -9 -80 -16 -27 -6 -58 -13 -67 -15 -143 -30 -593 -174 -733
-236 -11 -4 -69 -29 -130 -55 -185 -78 -514 -247 -660 -339 -205 -129 -274
-176 -434 -292 -21 -16 -133 -103 -194 -152 -203 -162 -539 -492 -708 -695
-13 -16 -29 -34 -35 -40 -5 -6 -38 -47 -73 -91 -34 -44 -69 -88 -77 -98 -77
-95 -340 -490 -377 -567 -4 -8 -23 -42 -43 -75 -40 -68 -174 -335 -221 -440
-123 -274 -267 -701 -324 -960 -4 -22 -11 -51 -14 -65 -3 -14 -8 -34 -10 -45
-2 -11 -10 -54 -18 -95 -24 -117 -39 -212 -52 -315 -4 -27 -8 -61 -10 -74 -2
-13 -7 -58 -10 -100 -4 -42 -8 -87 -10 -100 -21 -130 -21 -701 0 -906 17 -167
24 -226 30 -265 2 -14 6 -44 10 -68 4 -23 8 -52 10 -65 11 -85 19 -131 32
-192 21 -101 54 -248 58 -265 16 -62 60 -217 77 -275 12 -38 23 -74 24 -80 1
-5 19 -55 39 -110 20 -55 38 -104 39 -110 2 -5 7 -19 11 -30 4 -11 21 -54 37
-95 49 -127 118 -278 198 -435 112 -220 164 -310 309 -535 97 -151 317 -443
426 -564 6 -6 42 -47 80 -90 117 -134 360 -372 479 -471 27 -22 56 -47 65 -56
24 -25 257 -205 310 -241 25 -17 48 -34 51 -37 14 -16 395 -261 406 -261 2 0
32 -17 66 -38 81 -50 534 -272 554 -272 3 0 29 -11 57 -24 29 -13 63 -27 77
-31 14 -4 39 -13 55 -20 43 -18 193 -71 240 -85 22 -6 49 -15 60 -20 11 -5 81
-25 155 -45 74 -20 143 -39 152 -41 9 -3 25 -6 35 -8 10 -3 48 -11 86 -20 37
-9 79 -18 95 -21 15 -3 38 -7 52 -10 37 -8 82 -16 110 -20 14 -2 70 -11 125
-19 55 -9 120 -18 145 -21 25 -2 70 -7 100 -11 291 -33 743 -37 1040 -9 48 4
149 15 185 20 17 2 50 7 75 10 25 3 59 7 75 10 54 7 208 36 305 56 52 11 106
23 119 25 72 14 374 101 491 140 152 52 390 145 495 195 39 18 72 33 75 34 13
3 295 148 370 190 109 62 274 163 339 209 28 20 55 36 61 36 5 0 10 4 10 8 0
4 15 16 33 27 17 10 34 21 37 25 3 3 28 22 55 41 28 18 52 36 55 39 3 3 21 17
42 32 20 15 42 33 50 40 7 7 31 26 53 42 22 17 42 33 45 36 3 3 21 18 40 34
106 87 183 158 350 326 205 205 207 207 356 387 129 157 108 130 205 264 274
376 502 792 664 1209 20 52 40 104 45 116 19 48 102 308 129 404 58 202 129
546 146 699 3 19 7 50 10 69 3 19 8 60 11 91 3 31 7 72 9 91 26 238 26 747 1
1020 -3 34 -12 110 -21 180 -2 19 -7 58 -11 85 -3 28 -10 73 -15 100 -5 28
-12 66 -15 85 -5 36 -20 110 -48 236 -9 39 -18 79 -21 90 -8 37 -63 240 -85
309 -11 39 -23 77 -25 85 -6 23 -73 209 -91 255 -9 22 -23 58 -32 80 -17 45
-45 110 -70 169 -9 22 -67 139 -128 260 -143 286 -273 501 -448 741 -69 94
-229 300 -246 315 -3 3 -32 37 -65 75 -136 159 -370 392 -525 525 -14 12 -36
31 -50 43 -20 18 -213 172 -255 205 -93 71 -307 217 -400 272 -22 13 -41 28
-43 32 -2 4 -7 8 -11 8 -4 0 -63 32 -132 71 -102 59 -437 227 -514 259 -11 4
-48 20 -82 34 -86 37 -241 95 -283 107 -19 6 -44 14 -55 19 -26 12 -273 87
-350 106 -33 9 -76 19 -95 25 -39 10 -161 38 -200 45 -34 6 -70 13 -100 20
-50 10 -67 13 -170 28 -191 28 -269 37 -470 52 -71 5 -588 12 -593 8z"/>
</g>
</svg>
